<svg width="19" height="18" viewBox="0 0 19 18" xmlns="http://www.w3.org/2000/svg">
<path d="M4 18.0002C3.25 18.0002 2.50833 17.8169 1.775 17.4502C1.04167 17.0835 0.45 16.6002 0 16.0002C0.433333 16.0002 0.875 15.8294 1.325 15.4877C1.775 15.146 2 14.6502 2 14.0002C2 13.1669 2.29167 12.4585 2.875 11.8752C3.45833 11.2919 4.16667 11.0002 5 11.0002C5.83333 11.0002 6.54167 11.2919 7.125 11.8752C7.70833 12.4585 8 13.1669 8 14.0002C8 15.1002 7.60833 16.0419 6.825 16.8252C6.04167 17.6085 5.1 18.0002 4 18.0002ZM4 16.0002C4.55 16.0002 5.02083 15.8044 5.4125 15.4127C5.80417 15.021 6 14.5502 6 14.0002C6 13.7169 5.90417 13.4794 5.7125 13.2877C5.52083 13.096 5.28333 13.0002 5 13.0002C4.71667 13.0002 4.47917 13.096 4.2875 13.2877C4.09583 13.4794 4 13.7169 4 14.0002C4 14.3835 3.95417 14.7335 3.8625 15.0502C3.77083 15.3669 3.65 15.6669 3.5 15.9502C3.58333 15.9835 3.66667 16.0002 3.75 16.0002H4ZM9.75 12.0002L7 9.25021L15.95 0.300207C16.1333 0.116874 16.3625 0.0210404 16.6375 0.012707C16.9125 0.0043737 17.15 0.100207 17.35 0.300207L18.7 1.65021C18.9 1.85021 19 2.08354 19 2.35021C19 2.61687 18.9 2.85021 18.7 3.05021L9.75 12.0002Z" />
</svg>
