<svg width="16" height="19" viewBox="0 0 16 19"  xmlns="http://www.w3.org/2000/svg">
<path d="M15 18.9999H1C0.447715 18.9999 0 18.5521 0 17.9999V8.35686C0.0154912 8.1118 0.119639 7.88076 0.293 7.70686L7.293 0.706861C7.48057 0.519084 7.73509 0.413574 8.0005 0.413574C8.26591 0.413574 8.52043 0.519084 8.708 0.706861L15.708 7.70686C15.8957 7.89414 16.0009 8.14868 16 8.41386V17.9999C16 18.5521 15.5523 18.9999 15 18.9999ZM7.378 14.4749C7.598 14.6549 7.811 14.8309 8 14.9999C8.2 14.8229 8.424 14.6399 8.662 14.4459L8.719 14.3989C9.885 13.4479 11.337 12.2649 11.337 10.7989C11.3368 10.3152 11.142 9.85189 10.7964 9.51346C10.4508 9.17502 9.98359 8.98992 9.5 8.99986C8.9278 8.99832 8.38213 9.24096 8 9.66686C7.61795 9.24086 7.07222 8.99819 6.5 8.99986C6.01658 8.99046 5.5497 9.17594 5.20452 9.51453C4.85935 9.85312 4.66491 10.3163 4.665 10.7999C4.665 12.2609 6.105 13.4359 7.265 14.3799H7.264H7.269L7.287 14.3949H7.292L7.3 14.4139L7.352 14.4569L7.365 14.4669H7.371L7.378 14.4749Z" />
</svg>
