<svg width="26" height="25" viewBox="0 0 26 25" xmlns="http://www.w3.org/2000/svg">
<path d="M11.6245 1.40469C12.3795 0.633724 13.6205 0.633724 14.3755 1.40469C14.9177 1.95844 15.7391 2.13303 16.4597 1.8477C17.4629 1.45045 18.5967 1.95524 18.9728 2.96661C19.2429 3.69303 19.9223 4.18663 20.6966 4.21905C21.7747 4.26419 22.6052 5.1865 22.5374 6.2634C22.4887 7.03688 22.9086 7.76413 23.6027 8.1087C24.5693 8.58844 24.9528 9.76878 24.4528 10.725C24.0938 11.4118 24.1815 12.247 24.6756 12.8441C25.3634 13.6755 25.2337 14.9098 24.388 15.58C23.7806 16.0613 23.5211 16.86 23.7296 17.6065C24.0198 18.6457 23.3992 19.7205 22.3541 19.9888C21.6034 20.1816 21.0415 20.8056 20.9283 21.5723C20.7707 22.6398 19.7667 23.3693 18.7028 23.1893C17.9386 23.06 17.1715 23.4016 16.7562 24.0559C16.1781 24.967 14.9641 25.2251 14.0654 24.6279C13.4199 24.199 12.5801 24.199 11.9346 24.6279C11.0359 25.2251 9.82193 24.967 9.24379 24.0559C8.82854 23.4016 8.06138 23.06 7.29723 23.1893C6.23331 23.3693 5.22926 22.6398 5.07167 21.5723C4.95848 20.8056 4.39657 20.1816 3.6459 19.9888C2.60076 19.7205 1.98022 18.6457 2.27043 17.6065C2.47888 16.86 2.21938 16.0613 1.61199 15.58C0.766333 14.9098 0.636604 13.6755 1.32444 12.8441C1.81847 12.247 1.90625 11.4118 1.54716 10.725C1.04722 9.76878 1.43073 8.58844 2.39725 8.1087C3.09145 7.76413 3.51133 7.03688 3.46264 6.2634C3.39484 5.1865 4.22529 4.26419 5.30338 4.21905C6.07771 4.18663 6.75709 3.69303 7.02721 2.96661C7.40329 1.95524 8.53708 1.45045 9.54032 1.8477C10.2609 2.13303 11.0823 1.95844 11.6245 1.40469Z"/>
</svg>
